<svg width="188" height="188" viewBox="0 0 188 188" fill="none" xmlns="http://www.w3.org/2000/svg">
    <rect width="187.891" height="187.891" rx="40" fill="#078DEE" />
    <path fill-rule="evenodd" clip-rule="evenodd"
        d="M45.5732 101.994C47.3402 105.784 49.7524 109.066 52.618 111.772L31.9736 121.399C31.2289 121.746 30.4734 122.042 29.7111 122.288C29.5964 127.079 30.5563 131.969 32.7188 136.606C40.2154 152.683 59.325 159.638 75.4014 152.141L127.247 127.965C143.324 120.469 150.279 101.359 142.783 85.2826C141.016 81.4933 138.603 78.2108 135.738 75.5047L156.382 65.8781C157.127 65.5308 157.882 65.2349 158.645 64.9889C158.759 60.1981 157.8 55.3083 155.637 50.6708C148.141 34.5944 129.031 27.6391 112.955 35.1356L61.1084 59.3119C45.032 66.8084 38.0767 85.918 45.5732 101.994ZM93.1406 110.005C102.01 110.005 109.2 102.815 109.2 93.9462C109.2 85.077 102.01 77.8871 93.1406 77.8871C84.2715 77.8871 77.0816 85.077 77.0816 93.9462C77.0816 102.815 84.2715 110.005 93.1406 110.005Z"
        fill="white" />
</svg>
    