<svg width="255" height="100" viewBox="0 0 255 100" fill="none" xmlns="http://www.w3.org/2000/svg">
	<path
		d="M42.5127 82.2578V0.5H64.0312V98H44.7344L42.5127 82.2578ZM0.364258 64.4844V63.1514C0.364258 57.9463 0.935547 53.2067 2.07812 48.9326C3.2207 44.6162 4.91341 40.9134 7.15625 37.8242C9.39909 34.6927 12.1921 32.2806 15.5352 30.5879C18.8783 28.8952 22.7292 28.0488 27.0879 28.0488C30.9811 28.0488 34.3877 28.9587 37.3076 30.7783C40.2275 32.5557 42.7243 35.0524 44.7979 38.2686C46.8714 41.4847 48.5641 45.251 49.876 49.5674C51.1878 53.8415 52.1823 58.4541 52.8594 63.4053V64.9922C52.1823 69.6471 51.1878 74.0482 49.876 78.1953C48.5641 82.3001 46.8714 85.9395 44.7979 89.1133C42.7243 92.2871 40.2064 94.7839 37.2441 96.6035C34.3242 98.3809 30.8965 99.2695 26.9609 99.2695C22.6022 99.2695 18.7513 98.402 15.4082 96.667C12.1074 94.932 9.33561 92.4987 7.09277 89.3672C4.89225 86.2357 3.2207 82.554 2.07812 78.3223C0.935547 74.0905 0.364258 69.4779 0.364258 64.4844ZM21.7559 63.1514V64.4844C21.7559 67.0658 21.9251 69.4567 22.2637 71.6572C22.6022 73.8577 23.1735 75.8044 23.9775 77.4971C24.8239 79.1475 25.9242 80.4382 27.2783 81.3691C28.6748 82.3001 30.3887 82.7656 32.4199 82.7656C35.1706 82.7656 37.4346 82.1097 39.2119 80.7979C41.0316 79.486 42.3646 77.624 43.2109 75.2119C44.0996 72.7998 44.4805 69.9645 44.3535 66.7061V61.6914C44.4382 58.8984 44.2477 56.444 43.7822 54.3281C43.3167 52.1699 42.5762 50.3714 41.5605 48.9326C40.5872 47.4938 39.3389 46.4147 37.8154 45.6953C36.3343 44.9336 34.5781 44.5527 32.5469 44.5527C30.5579 44.5527 28.8652 45.0182 27.4688 45.9492C26.1146 46.8802 25.0143 48.1921 24.168 49.8848C23.3216 51.5352 22.708 53.5029 22.3271 55.7881C21.9463 58.0309 21.7559 60.4854 21.7559 63.1514ZM66.9893 64.3574V63.0244C66.9893 57.9886 67.7087 53.3548 69.1475 49.123C70.5863 44.849 72.7021 41.1462 75.4951 38.0146C78.2881 34.8831 81.737 32.4499 85.8418 30.7148C89.9466 28.9375 94.6862 28.0488 100.061 28.0488C105.477 28.0488 110.238 28.9375 114.343 30.7148C118.49 32.4499 121.96 34.8831 124.753 38.0146C127.546 41.1462 129.662 44.849 131.101 49.123C132.539 53.3548 133.259 57.9886 133.259 63.0244V64.3574C133.259 69.3509 132.539 73.9847 131.101 78.2588C129.662 82.4906 127.546 86.1934 124.753 89.3672C121.96 92.4987 118.511 94.932 114.406 96.667C110.301 98.402 105.562 99.2695 100.188 99.2695C94.8132 99.2695 90.0524 98.402 85.9053 96.667C81.7581 94.932 78.2881 92.4987 75.4951 89.3672C72.7021 86.1934 70.5863 82.4906 69.1475 78.2588C67.7087 73.9847 66.9893 69.3509 66.9893 64.3574ZM88.3809 63.0244V64.3574C88.3809 66.9388 88.5713 69.3509 88.9521 71.5938C89.333 73.8366 89.9678 75.8044 90.8564 77.4971C91.7451 79.1475 92.9512 80.4382 94.4746 81.3691C95.998 82.3001 97.9023 82.7656 100.188 82.7656C102.43 82.7656 104.292 82.3001 105.773 81.3691C107.297 80.4382 108.503 79.1475 109.392 77.4971C110.28 75.8044 110.915 73.8366 111.296 71.5938C111.677 69.3509 111.867 66.9388 111.867 64.3574V63.0244C111.867 60.5277 111.677 58.179 111.296 55.9785C110.915 53.7357 110.28 51.7679 109.392 50.0752C108.503 48.3402 107.297 46.986 105.773 46.0127C104.25 45.0394 102.346 44.5527 100.061 44.5527C97.8177 44.5527 95.9346 45.0394 94.4111 46.0127C92.93 46.986 91.7451 48.3402 90.8564 50.0752C89.9678 51.7679 89.333 53.7357 88.9521 55.9785C88.5713 58.179 88.3809 60.5277 88.3809 63.0244ZM165.289 82.7656C167.278 82.7656 168.971 82.4059 170.367 81.6865C171.806 80.9248 172.885 79.8669 173.604 78.5127C174.366 77.1162 174.726 75.4447 174.684 73.498H194.806C194.848 78.6608 193.578 83.1888 190.997 87.082C188.458 90.9329 184.988 93.9375 180.587 96.0957C176.228 98.2116 171.298 99.2695 165.797 99.2695C160.423 99.2695 155.725 98.402 151.705 96.667C147.685 94.8896 144.321 92.4352 141.612 89.3037C138.946 86.1299 136.936 82.4271 135.582 78.1953C134.27 73.9635 133.614 69.3721 133.614 64.4209V62.9609C133.614 58.0098 134.27 53.4183 135.582 49.1865C136.936 44.9124 138.946 41.2096 141.612 38.0781C144.321 34.9043 147.664 32.4499 151.642 30.7148C155.662 28.9375 160.338 28.0488 165.67 28.0488C171.383 28.0488 176.419 29.1279 180.777 31.2861C185.178 33.4443 188.627 36.5758 191.124 40.6807C193.621 44.7855 194.848 49.7578 194.806 55.5977H174.684C174.726 53.5241 174.409 51.6621 173.731 50.0117C173.054 48.3613 171.996 47.0495 170.558 46.0762C169.161 45.0605 167.363 44.5527 165.162 44.5527C162.962 44.5527 161.184 45.0394 159.83 46.0127C158.476 46.986 157.439 48.3402 156.72 50.0752C156.043 51.7679 155.577 53.7145 155.323 55.915C155.112 58.1156 155.006 60.4642 155.006 62.9609V64.4209C155.006 66.96 155.112 69.3509 155.323 71.5938C155.577 73.7943 156.064 75.7409 156.783 77.4336C157.503 79.084 158.539 80.3958 159.894 81.3691C161.248 82.3001 163.046 82.7656 165.289 82.7656ZM233.438 78.7031C233.438 77.5182 233.035 76.5026 232.231 75.6562C231.47 74.7676 230.116 73.9635 228.169 73.2441C226.222 72.4824 223.493 71.7207 219.98 70.959C216.637 70.2396 213.485 69.2874 210.522 68.1025C207.603 66.9176 205.042 65.4788 202.842 63.7861C200.641 62.0934 198.906 60.0833 197.637 57.7559C196.41 55.4284 195.796 52.7624 195.796 49.7578C195.796 46.8379 196.41 44.0872 197.637 41.5059C198.906 38.8822 200.747 36.5758 203.159 34.5869C205.614 32.5557 208.597 30.9688 212.109 29.8262C215.622 28.6413 219.621 28.0488 224.106 28.0488C230.285 28.0488 235.617 29.001 240.103 30.9053C244.588 32.7673 248.037 35.391 250.449 38.7764C252.904 42.1195 254.131 45.9915 254.131 50.3926H232.739C232.739 48.6576 232.443 47.1764 231.851 45.9492C231.3 44.722 230.391 43.791 229.121 43.1562C227.852 42.4792 226.159 42.1406 224.043 42.1406C222.562 42.1406 221.208 42.4157 219.98 42.9658C218.796 43.516 217.843 44.2777 217.124 45.251C216.405 46.2243 216.045 47.3669 216.045 48.6787C216.045 49.6097 216.257 50.4561 216.68 51.2178C217.145 51.9372 217.843 52.6143 218.774 53.249C219.705 53.8415 220.89 54.3916 222.329 54.8994C223.768 55.3649 225.503 55.7881 227.534 56.1689C232.147 57.0153 236.463 58.2214 240.483 59.7871C244.504 61.3529 247.762 63.5745 250.259 66.4521C252.798 69.3298 254.067 73.2018 254.067 78.0684C254.067 81.1152 253.369 83.9294 251.973 86.5107C250.576 89.0498 248.566 91.2926 245.942 93.2393C243.319 95.1436 240.166 96.6247 236.484 97.6826C232.803 98.7406 228.656 99.2695 224.043 99.2695C217.484 99.2695 211.94 98.1058 207.412 95.7783C202.884 93.4085 199.456 90.4463 197.129 86.8916C194.844 83.2946 193.701 79.6553 193.701 75.9736H213.633C213.717 78.0895 214.225 79.8245 215.156 81.1787C216.13 82.5329 217.42 83.5273 219.028 84.1621C220.636 84.7969 222.498 85.1143 224.614 85.1143C226.561 85.1143 228.169 84.8392 229.438 84.2891C230.75 83.7389 231.745 82.9984 232.422 82.0674C233.099 81.0941 233.438 79.9727 233.438 78.7031Z"
		fill="currentColor" />
</svg>
	